<?xml version="1.0" encoding="UTF-8" standalone="no"?>
<!DOCTYPE svg PUBLIC "-//W3C//DTD SVG 1.1//EN" "http://www.w3.org/Graphics/SVG/1.1/DTD/svg11.dtd">
<svg width="100%" height="100%" viewBox="0 0 342 250" version="1.1" xmlns="http://www.w3.org/2000/svg" xmlns:xlink="http://www.w3.org/1999/xlink" xml:space="preserve" xmlns:serif="http://www.serif.com/" style="fill-rule:evenodd;clip-rule:evenodd;stroke-linecap:round;stroke-linejoin:round;stroke-miterlimit:1.5;">
    <g id="Layer1">
    </g>
    <g id="Artboard1" transform="matrix(14.7609,0,0,4.89106,-6572.4,249.44)">
        <rect x="445.259" y="-50.999" width="23.109" height="50.999" style="fill:none;"/>
        <g transform="matrix(0.0677467,0,0,0.204455,445.516,-53.6795)">
            <path d="M140.938,125.824C140.938,125.824 131.741,137.214 124.211,134.405C116.681,131.597 106.628,122.96 106.706,110.265C106.784,97.569 112.753,94.722 114.224,89.559C115.695,84.396 109.487,63.182 116.906,60.127C124.326,57.073 131.884,61.256 140.587,52.611C149.29,43.965 158.55,34.153 167.677,38.505C176.805,42.858 179.389,46.384 186.073,52.716C192.757,59.048 193.078,56.824 193.247,67.769C193.417,78.715 200.55,84.682 196.038,99.073C191.526,113.463 195.067,112.389 190.393,117.986C185.72,123.582 182.568,124.724 182.568,124.724C182.568,124.724 178.802,128.314 179.882,132.433C180.961,136.553 178.811,137.446 183.837,139.681C188.863,141.915 192.048,141.074 199.103,145.888C206.158,150.702 210.591,154.555 212.616,158.739C214.641,162.924 216.768,164.461 216.768,164.461C216.768,164.461 221.581,161.018 227.125,163.732C232.669,166.445 233.275,163.346 231.533,168.091C229.79,172.836 227.711,193.542 223.43,195.725C219.149,197.909 206.012,203.51 206.012,203.51C206.012,203.51 203.871,203.897 200.146,205.286C196.421,206.675 197.031,212.288 192.514,215.566C187.997,218.843 181.461,226.993 174.639,229.373C168.101,231.655 154.954,234.565 141.21,222.279C140.759,221.876 136.898,218.912 136.514,218.428C127.272,206.757 129.294,211.7 120.072,194.992C116.131,187.852 115.749,183.307 114.968,178.863C114.175,174.349 113.787,170.034 114.493,161.953C115.046,155.631 117.461,142.15 126.526,139.341C135.591,136.531 141.266,136.236 141.266,136.236L140.938,125.824Z" style="fill:rgb(225,86,255);"/>
        </g>
        <g transform="matrix(0.0677467,0,0,0.204455,445.516,-53.6795)">
            <path d="M145.724,100.493C145.724,100.493 150.376,102.416 151.751,97.928" style="fill:none;stroke:rgb(169,0,136);stroke-width:1.5px;"/>
        </g>
        <g transform="matrix(0.0677467,0,0,0.204455,447.363,-54.6104)">
            <path d="M145.724,100.493C145.724,100.493 150.376,102.416 151.751,97.928" style="fill:none;stroke:rgb(169,0,136);stroke-width:1.5px;"/>
        </g>
        <g transform="matrix(0.0677467,0,0,0.204455,445.516,-53.6795)">
            <path d="M155.648,96.588C155.648,96.588 157.609,91.613 166.921,92.836" style="fill:none;stroke:rgb(169,0,136);stroke-width:1.5px;"/>
        </g>
        <g transform="matrix(0.0677467,0,0,0.204455,445.428,-53.8913)">
            <ellipse cx="176.969" cy="95.22" rx="8.665" ry="8.503" style="fill:none;stroke:rgb(169,0,136);stroke-width:1.5px;"/>
        </g>
        <g transform="matrix(0.0677467,0,0,0.204455,443.509,-52.6825)">
            <ellipse cx="176.969" cy="95.22" rx="8.665" ry="8.503" style="fill:none;stroke:rgb(169,0,136);stroke-width:1.5px;"/>
        </g>
        <g transform="matrix(0.0677467,0,0,0.204455,445.516,-53.6795)">
            <path d="M138.992,123.554C138.992,123.554 125.363,144.015 113.713,123.905C102.063,103.795 111.984,97.026 116.481,91.34C120.978,85.655 105.912,59.502 129.684,59.175C153.457,58.849 158.338,26.901 176.795,48.784C195.253,70.667 199.308,58.05 197.211,78.368C195.114,98.687 210.57,91.46 199.684,106.671C188.798,121.883 198.393,121.74 183.292,124.203" style="fill:none;stroke:rgb(169,0,136);stroke-width:1.5px;"/>
        </g>
        <g transform="matrix(0.0677467,0,0,0.204455,445.516,-53.6795)">
            <path d="M139.102,90.058C139.102,90.058 146.238,83.636 153.472,87.594" style="fill:none;stroke:rgb(169,0,136);stroke-width:1.5px;"/>
        </g>
        <g transform="matrix(0.0677467,0,0,0.204455,445.516,-53.6795)">
            <path d="M172.556,80.472C172.556,80.472 159.718,82.762 165.983,103.376C172.248,123.989 159.013,112.34 163.976,113.213" style="fill:none;stroke:rgb(169,0,136);stroke-width:1.5px;"/>
        </g>
        <g transform="matrix(0.0677467,0,0,0.204455,445.516,-53.6795)">
            <path d="M155.77,123.349C155.77,123.349 163.801,128.759 169.136,122.421" style="fill:none;stroke:rgb(169,0,136);stroke-width:1.5px;"/>
        </g>
        <g transform="matrix(0.0677467,0,0,0.204455,445.516,-53.6795)">
            <path d="M233.177,171.682C233.177,171.682 218.548,185.129 224.637,183.128C230.726,181.127 234.753,178.514 234.66,176.317" style="fill:none;stroke:rgb(169,0,136);stroke-width:1.5px;"/>
        </g>
        <g transform="matrix(0.0677467,0,0,0.204455,445.431,-51.9887)">
            <path d="M233.177,171.682C233.177,171.682 218.548,185.129 224.637,183.128C230.726,181.127 234.753,178.514 234.66,176.317" style="fill:none;stroke:rgb(169,0,136);stroke-width:1.5px;"/>
        </g>
        <g transform="matrix(0.0677467,0,0,0.204455,445.516,-53.6795)">
            <path d="M169.1,182.916C169.1,182.916 182.024,198.212 190.864,182.414" style="fill:none;stroke:rgb(169,0,136);stroke-width:1.5px;"/>
        </g>
        <g transform="matrix(0.0677467,0,0,0.204455,445.516,-53.6795)">
            <path d="M180.073,163.073C180.073,163.073 180.363,142.397 183.582,150.293C186.802,158.19 186.785,166.833 186.785,166.833C186.785,166.833 192.593,159.214 194.466,162.182C196.339,165.149 188.902,172.431 191.048,180.328C193.193,188.226 188.982,192.692 187.072,194.17" style="fill:none;stroke:rgb(169,0,136);stroke-width:1.5px;"/>
        </g>
        <g transform="matrix(0.0677467,0,0,0.204455,445.516,-53.6795)">
            <path d="M176.977,165.76C176.977,165.76 184.697,160.303 184.649,168.059C184.602,175.815 185.289,178.326 183.186,176.91" style="fill:none;stroke:rgb(169,0,136);stroke-width:1.5px;"/>
        </g>
        <g transform="matrix(0.0677467,0,0,0.204455,445.516,-53.6795)">
            <path d="M172.255,167.173C172.255,167.173 174.527,164.406 177.509,167.374C180.49,170.341 185.7,180.766 178.554,177.024" style="fill:none;stroke:rgb(169,0,136);stroke-width:1.5px;"/>
        </g>
        <g transform="matrix(0.0677467,0,0,0.204455,445.516,-53.6795)">
            <path d="M169.083,183.525C169.083,183.525 166.806,168.301 171.06,167.419C175.314,166.537 184.32,190.196 170.361,175.554" style="fill:none;stroke:rgb(169,0,136);stroke-width:1.5px;"/>
        </g>
        <g transform="matrix(0.0677467,0,0,0.204455,445.516,-53.6795)">
            <path d="M132.662,101.339C132.662,101.339 128.662,68.5 154.109,74.781C179.557,81.063 182.788,82.509 184.875,78.462C186.962,74.416 187.968,122.68 177.268,131.529C166.569,140.378 152.734,142.026 132.333,114.673C116.091,92.896 129.428,97.296 132.662,101.339Z" style="fill:none;stroke:rgb(169,0,136);stroke-width:1.5px;"/>
        </g>
        <g transform="matrix(0.0677467,0,0,0.204455,445.516,-53.6795)">
            <path d="M202.813,206.413C202.813,206.413 223.6,202.45 226.241,196.166" style="fill:none;stroke:rgb(169,0,136);stroke-width:1.5px;"/>
        </g>
        <g transform="matrix(0.0677467,0,0,0.204455,445.516,-53.6795)">
            <path d="M199.307,168.449C199.307,168.449 202.182,199.045 199.033,216.98" style="fill:none;stroke:rgb(169,0,136);stroke-width:1.5px;"/>
        </g>
        <g transform="matrix(0.0677467,0,0,0.204455,445.516,-53.6795)">
            <path d="M169.65,183.426C169.65,183.426 167.205,200.784 186.992,193.986" style="fill:none;stroke:rgb(169,0,136);stroke-width:1.5px;"/>
        </g>
        <g transform="matrix(0.0677467,0,0,0.204455,445.516,-53.6795)">
            <path d="M140.137,141.114C124.749,134.455 106.897,168.454 127.758,201.345C134.598,212.388 171.202,260.135 187.158,194.409" style="fill:none;stroke:rgb(169,0,136);stroke-width:1.5px;"/>
        </g>
        <g transform="matrix(0.0677467,0,0,0.204455,445.516,-53.6795)">
            <g id="Layer2">
                <path d="M145.164,131.535C145.164,131.535 139.85,143.971 149.166,148.598C153.234,150.618 162.539,152.568 172.19,148.964C196.608,139.846 175.645,127.478 180.288,129.365" style="fill:none;stroke:rgb(169,0,136);stroke-width:1.5px;"/>
            </g>
        </g>
        <g transform="matrix(0.0677467,0,0,0.204455,445.516,-53.6795)">
            <path d="M146.955,173.152C146.955,173.152 151.008,204.336 157.249,198.013C163.49,191.69 168.551,183.928 168.551,183.928" style="fill:none;stroke:rgb(169,0,136);stroke-width:1.5px;"/>
        </g>
        <g transform="matrix(0.0677467,0,0,0.204455,445.516,-53.6795)">
            <path d="M185.258,136.547C185.258,136.547 210.259,136.616 216.852,162.971" style="fill:none;stroke:rgb(169,0,136);stroke-width:1.5px;"/>
        </g>
        <g transform="matrix(0.0677467,0,0,0.204455,445.516,-53.6795)">
            <path d="M202.051,204.922L213.259,166.79C213.259,166.79 244.228,149.022 235.283,168.23" style="fill:none;stroke:rgb(169,0,136);stroke-width:1.5px;"/>
        </g>
        <g id="Layer3">
        </g>
    </g>
</svg>
