<?xml version="1.0" encoding="UTF-8" standalone="no"?>
<!DOCTYPE svg PUBLIC "-//W3C//DTD SVG 1.1//EN" "http://www.w3.org/Graphics/SVG/1.1/DTD/svg11.dtd">
<svg width="100%" height="100%" viewBox="0 0 386 183" version="1.1" xmlns="http://www.w3.org/2000/svg" xmlns:xlink="http://www.w3.org/1999/xlink" xml:space="preserve" xmlns:serif="http://www.serif.com/" style="fill-rule:evenodd;clip-rule:evenodd;stroke-linecap:round;stroke-linejoin:round;stroke-miterlimit:1.5;">
    <g transform="matrix(-0.11019,-0.144383,0.144383,-0.11019,274.223,207.753)">
        <rect x="303.75" y="659.841" width="77.424" height="287.525" style="fill:rgb(66,209,255);"/>
    </g>
    <g transform="matrix(-0.167114,-0.024183,0.024183,-0.167114,76.5007,253.249)">
        <rect x="303.75" y="659.841" width="77.424" height="287.525" style="fill:rgb(66,209,255);"/>
    </g>
    <g transform="matrix(0.14278,-0.11226,0.11226,0.14278,213.404,-6.53513)">
        <rect x="303.75" y="659.841" width="77.424" height="287.525" style="fill:rgb(72,216,255);"/>
    </g>
    <g transform="matrix(0.021771,-0.167445,0.167445,0.021771,-103.311,150.522)">
        <rect x="303.75" y="659.841" width="77.424" height="287.525" style="fill:rgb(72,216,255);"/>
    </g>
    <g id="Layer1">
    </g>
    <g id="Layer11" serif:id="Layer1" transform="matrix(0.840959,-0.541099,0.541099,0.840959,145.153,147.041)">
        <g transform="matrix(0.199596,-0.0721279,0.0721279,0.199596,87.6914,-87.4238)">
            <path d="M338.552,657.314L401.337,673.659L380.029,759.585L465.967,784.722L448.708,849.099L362.173,824.772L338.552,912.131L275.767,896.225L298.849,806.971L211.137,784.722L229.357,720.346L314.779,743.624L338.552,657.314Z" style="fill:none;stroke:rgb(81,81,81);stroke-width:7.07px;"/>
        </g>
        <g transform="matrix(0.0856116,-0.177763,0.177763,0.0856116,-242.776,-93.9738)">
            <path d="M338.552,657.314L401.337,673.659L380.029,759.585L465.967,784.722L448.708,849.099L362.173,824.772L338.552,912.131L275.767,896.225L298.849,806.971L211.137,784.722L229.357,720.346L314.779,743.624L338.552,657.314Z" style="fill:none;stroke:rgb(81,81,81);stroke-width:7.6px;"/>
        </g>
    </g>
    <g transform="matrix(1,0,0,1,-515.252,-11.5863)">
        <rect x="596.364" y="52.468" width="232.848" height="130.818" style="fill:rgb(66,209,255);"/>
    </g>
    <g transform="matrix(1,0,0,0.0741866,-518.269,10.8177)">
        <rect x="596.364" y="52.468" width="232.848" height="130.818" style="fill:rgb(66,209,255);"/>
    </g>
    <g transform="matrix(1,0,0,0.0741866,-523.96,7.81772)">
        <rect x="596.364" y="52.468" width="232.848" height="130.818" style="fill:none;stroke:rgb(81,81,81);stroke-width:2.12px;"/>
    </g>
    <g transform="matrix(1,0,0,1,-521.96,-17.889)">
        <rect x="596.364" y="52.468" width="232.848" height="130.818" style="fill:none;stroke:rgb(81,81,81);stroke-width:1.5px;"/>
    </g>
    <g transform="matrix(0.395946,0,0,0.395946,-129.521,39.5595)">
        <rect x="596.364" y="52.468" width="232.848" height="130.818" style="fill:white;"/>
    </g>
    <g transform="matrix(0.0568443,0,0,0.0946697,251.201,34.3789)">
        <rect x="596.364" y="52.468" width="232.848" height="130.818" style="fill:white;"/>
    </g>
    <g transform="matrix(0.395946,0,0,0.0487778,-130.521,114.724)">
        <rect x="596.364" y="52.468" width="232.848" height="130.818" style="fill:white;"/>
    </g>
    <g transform="matrix(0.395946,0,0,0.0487778,-130.521,127.19)">
        <rect x="596.364" y="52.468" width="232.848" height="130.818" style="fill:white;"/>
    </g>
    <g transform="matrix(0.395946,0,0,0.0487778,-131.009,139.751)">
        <rect x="596.364" y="52.468" width="232.848" height="130.818" style="fill:white;"/>
    </g>
    <g transform="matrix(0.395946,0,0,0.395946,-132.787,36.7196)">
        <rect x="596.364" y="52.468" width="232.848" height="130.818" style="fill:none;stroke:rgb(81,81,81);stroke-width:3.79px;"/>
    </g>
    <g transform="matrix(0.395946,0,0,0.0487778,-132.787,113.091)">
        <rect x="596.364" y="52.468" width="232.848" height="130.818" style="fill:none;stroke:rgb(81,81,81);stroke-width:5.32px;"/>
    </g>
    <g transform="matrix(0.395946,0,0,0.0487778,-132.787,125.622)">
        <rect x="596.364" y="52.468" width="232.848" height="130.818" style="fill:none;stroke:rgb(81,81,81);stroke-width:5.32px;"/>
    </g>
    <g transform="matrix(0.395946,0,0,0.0487778,-132.787,138.315)">
        <rect x="596.364" y="52.468" width="232.848" height="130.818" style="fill:none;stroke:rgb(81,81,81);stroke-width:5.32px;"/>
    </g>
    <g transform="matrix(0.0561313,0,0,0.0846358,253.187,33.9054)">
        <rect x="596.364" y="52.468" width="232.848" height="130.818" style="fill:none;stroke:rgb(81,81,81);stroke-width:20.89px;"/>
    </g>
    <g transform="matrix(1,0,0,1,-501.13,60.5372)">
        <path d="M798.554,79.98C798.554,79.171 797.897,78.514 797.087,78.514L718.246,78.514C717.437,78.514 716.78,79.171 716.78,79.98L716.78,82.912C716.78,83.721 717.437,84.378 718.246,84.378L797.087,84.378C797.897,84.378 798.554,83.721 798.554,82.912L798.554,79.98Z" style="fill:white;"/>
    </g>
    <g transform="matrix(0.514832,0,0,1,-113.698,50.5039)">
        <path d="M798.554,79.98C798.554,79.171 797.278,78.514 795.706,78.514L719.628,78.514C718.056,78.514 716.78,79.171 716.78,79.98L716.78,82.912C716.78,83.721 718.056,84.378 719.628,84.378L795.706,84.378C797.278,84.378 798.554,83.721 798.554,82.912L798.554,79.98Z" style="fill:white;"/>
    </g>
    <g transform="matrix(0.444564,0,0,1,-103.131,49.918)">
        <path d="M798.554,79.98C798.554,79.171 797.076,78.514 795.256,78.514L720.078,78.514C718.258,78.514 716.78,79.171 716.78,79.98L716.78,82.912C716.78,83.721 718.258,84.378 720.078,84.378L795.256,84.378C797.076,84.378 798.554,83.721 798.554,82.912L798.554,79.98Z" style="fill:white;"/>
    </g>
    <g transform="matrix(0.650879,0,0,1,-251.013,39.7474)">
        <path d="M798.554,79.98C798.554,79.171 797.544,78.514 796.301,78.514L719.033,78.514C717.789,78.514 716.78,79.171 716.78,79.98L716.78,82.912C716.78,83.721 717.789,84.378 719.033,84.378L796.301,84.378C797.544,84.378 798.554,83.721 798.554,82.912L798.554,79.98Z" style="fill:white;"/>
    </g>
    <g id="Artboard1" transform="matrix(16.6836,0,0,3.58182,-7428.52,182.67)">
        <rect x="445.259" y="-50.999" width="23.109" height="50.999" style="fill:none;"/>
    </g>
</svg>
