<?xml version="1.0" encoding="UTF-8" standalone="no"?>
<!DOCTYPE svg PUBLIC "-//W3C//DTD SVG 1.1//EN" "http://www.w3.org/Graphics/SVG/1.1/DTD/svg11.dtd">
<svg width="100%" height="100%" viewBox="0 0 342 250" version="1.1" xmlns="http://www.w3.org/2000/svg" xmlns:xlink="http://www.w3.org/1999/xlink" xml:space="preserve" xmlns:serif="http://www.serif.com/" style="fill-rule:evenodd;clip-rule:evenodd;stroke-linecap:round;stroke-linejoin:round;stroke-miterlimit:1.5;">
    <g id="Layer1">
    </g>
    <g id="Artboard1" transform="matrix(14.7609,0,0,4.89106,-6572.4,249.44)">
        <rect x="445.259" y="-50.999" width="23.109" height="50.999" style="fill:none;"/>
        <g transform="matrix(0.101073,0,0,0.305032,436.986,-50.8609)">
            <path d="M141.35,105.816C142.188,105.303 157.435,102.543 159.9,114.424C161.357,121.444 160.321,113.942 167.447,118.369C169.409,115.112 173.961,111.962 180.811,123.032C186.428,115.276 186.599,101.909 186.599,101.909L183.629,105.816L183.629,100.029L178.608,102.895L180.628,94.494L172.032,96.19L183.629,80.681L199.75,80.681L214.056,96.346L204.558,93.047L206.731,101.745L201.576,99.352L202.773,103.933L199.75,101.516C199.75,101.516 199.71,119.015 206.948,123.691C207.844,124.674 212.647,117.267 220.877,125.051C222.99,120.742 227.771,120.758 227.771,120.758C229.991,120.978 231.732,121.962 232.747,123.032C233.829,120.729 233.262,111.614 246.401,107.519C246.401,117.303 247.137,127.259 247.137,127.259L141.35,127.16L141.35,105.816Z" style="fill:rgb(225,86,255);"/>
        </g>
        <g transform="matrix(0.105122,0,0,0.305032,436.49,-50.8609)">
            <rect x="142.741" y="62.171" width="99.595" height="65.087" style="fill:none;stroke:rgb(81,81,81);stroke-width:0.99px;"/>
        </g>
        <g transform="matrix(0.101073,0,0,0.305032,437.208,-50.8609)">
            <rect x="136.303" y="57.847" width="112.777" height="74.508" style="fill:none;stroke:rgb(81,81,81);stroke-width:1.01px;"/>
        </g>
        <g transform="matrix(0.101073,0,0,0.305032,437.003,-50.4743)">
            <path d="M181.458,70.3C165.804,44.962 171.447,27.495 192.774,15.331C213.51,28.136 220.138,45.463 202.783,70.3" style="fill:rgb(225,86,255);"/>
        </g>
        <g transform="matrix(0.101073,0,0,0.305032,437.208,-50.8609)">
            <path d="M249.08,132.355L136.303,132.355L124.611,141.6L261.955,141.6L249.08,132.355Z" style="fill:none;stroke:rgb(81,81,81);stroke-width:1.01px;"/>
        </g>
        <g transform="matrix(0.101073,0,0,0.305032,437.208,-50.8609)">
            <rect x="124.611" y="141.6" width="137.344" height="5.626" style="fill:none;stroke:rgb(81,81,81);stroke-width:1.01px;"/>
        </g>
        <g transform="matrix(0.101073,0,0,0.305032,437.19,-51.0656)">
            <path d="M186.929,64.718L198.975,64.718" style="fill:none;stroke:white;stroke-width:1.01px;"/>
        </g>
        <g transform="matrix(0.101073,0,0,0.305032,437.208,-50.8609)">
            <path d="M186.929,64.718L198.975,64.718" style="fill:none;stroke:rgb(81,81,81);stroke-width:1.01px;"/>
        </g>
        <g transform="matrix(0.129607,0,0,0.391145,431.517,-53.7809)">
            <circle cx="193.331" cy="36.7" r="6.402" style="fill:white;"/>
        </g>
        <g transform="matrix(0.129607,0,0,0.391145,431.644,-53.3117)">
            <circle cx="193.331" cy="36.7" r="6.402" style="fill:none;stroke:rgb(81,81,81);stroke-width:0.78px;"/>
        </g>
        <g transform="matrix(0.107695,0,0,0.305032,435.689,-50.8609)">
            <path d="M183.806,70.7L183.629,80.681L201.576,80.681L201.421,70.7" style="fill:rgb(225,86,255);"/>
        </g>
        <g transform="matrix(0.103609,0.000144268,4.78035e-05,0.305035,436.802,-50.8872)">
            <path d="M181.458,70.3L201.951,70.69" style="fill:none;stroke:rgb(81,81,81);stroke-width:0.99px;"/>
        </g>
        <g transform="matrix(0.101073,0,0,0.305032,437.208,-50.8609)">
            <path d="M141.35,105.819C141.35,105.819 155.355,105.252 156.391,119.751C158.63,118.098 165.485,118.098 166.955,123.032C167.721,119.38 175.758,115.814 178.608,122.488" style="fill:none;stroke:rgb(81,81,81);stroke-width:1.01px;"/>
        </g>
        <g transform="matrix(-0.101073,0,0,0.305032,476.177,-50.8609)">
            <path d="M141.35,105.819C141.35,105.819 155.355,105.252 156.391,119.751C158.63,118.098 165.485,118.098 166.955,123.032C167.721,119.38 175.758,115.814 178.608,122.488" style="fill:none;stroke:rgb(81,81,81);stroke-width:1.01px;"/>
        </g>
        <g transform="matrix(0.101073,0,0,0.305032,437.208,-50.8609)">
            <path d="M178.608,123.032C178.608,123.032 186.55,118.464 186.55,101.625C186.129,101.561 183.418,105.816 183.418,105.816" style="fill:none;stroke:rgb(81,81,81);stroke-width:1.01px;"/>
        </g>
        <g transform="matrix(-0.101073,0,0,0.305032,476.177,-50.8609)">
            <path d="M178.608,122.494C178.608,122.494 186.55,118.464 186.55,101.625C186.129,101.561 183.418,105.816 183.418,105.816" style="fill:none;stroke:rgb(81,81,81);stroke-width:1.01px;"/>
        </g>
        <g transform="matrix(0.101073,0,0,0.305032,437.208,-50.8609)">
            <path d="M183.339,105.816L183.963,99.432L178.608,102.964L181.458,93.719L171.153,96.875L184.772,80.779L192.774,80.681" style="fill:none;stroke:rgb(81,81,81);stroke-width:1.01px;"/>
        </g>
        <g transform="matrix(-0.101073,0,0,0.305032,476.177,-50.8609)">
            <path d="M183.339,105.816L183.963,99.432L178.608,102.964L181.458,93.719L171.153,96.875L184.772,80.779L192.774,80.681" style="fill:none;stroke:rgb(81,81,81);stroke-width:1.01px;"/>
        </g>
        <g transform="matrix(0.116503,0,0,0.351598,433.674,-53.8452)">
            <path d="M212.65,50.022C212.65,50.022 217.364,57.147 220.451,61.813C220.979,62.611 221.032,63.633 220.59,64.481C220.147,65.33 219.279,65.872 218.323,65.896C213.35,66.022 206.257,66.203 206.257,66.203" style="fill:rgb(225,86,255);"/>
        </g>
        <g transform="matrix(-0.116503,0,0,0.351598,479.393,-53.8452)">
            <path d="M212.65,50.022C212.65,50.022 217.364,57.147 220.451,61.813C220.979,62.611 221.032,63.633 220.59,64.481C220.147,65.33 219.279,65.872 218.323,65.896C213.35,66.022 206.257,66.203 206.257,66.203" style="fill:rgb(225,86,255);"/>
        </g>
        <g transform="matrix(0.101073,0,0,0.305032,437.266,-50.8609)">
            <path d="M181.458,70.3C165.804,44.962 171.447,27.495 192.774,15.331C213.51,28.136 220.138,45.463 202.783,70.3" style="fill:none;stroke:rgb(81,81,81);stroke-width:1.01px;"/>
        </g>
        <g transform="matrix(0.101073,0,0,0.305032,437.208,-50.8609)">
            <path d="M183.806,70.7L183.629,80.681L201.576,80.681L201.421,70.7" style="fill:none;stroke:rgb(81,81,81);stroke-width:1.01px;"/>
        </g>
        <g transform="matrix(-0.101073,0,0,0.305032,476.211,-50.7625)">
            <path d="M212.65,50.022C212.65,50.022 216.973,56.557 220.051,61.208C220.659,62.128 220.72,63.306 220.211,64.284C219.701,65.262 218.7,65.886 217.598,65.914C212.69,66.039 206.257,66.203 206.257,66.203" style="fill:rgb(225,86,255);stroke:rgb(81,81,81);stroke-width:1.01px;"/>
        </g>
        <g transform="matrix(0.101073,0,0,0.305032,437.194,-50.7625)">
            <path d="M212.65,50.022C212.65,50.022 216.973,56.557 220.051,61.208C220.659,62.128 220.72,63.306 220.211,64.284C219.701,65.262 218.7,65.886 217.598,65.914C212.69,66.039 206.257,66.203 206.257,66.203" style="fill:none;stroke:rgb(81,81,81);stroke-width:1.01px;"/>
        </g>
        <g transform="matrix(-0.00674309,-0.0266651,0.00883556,-0.0203502,460.27,2.237)">
            <rect x="303.75" y="659.841" width="77.424" height="287.525" style="fill:rgb(225,86,255);"/>
        </g>
        <g transform="matrix(0.00873742,-0.0207325,0.00686979,0.0263689,456.548,-37.3383)">
            <rect x="303.75" y="659.841" width="77.424" height="287.525" style="fill:rgb(225,86,255);"/>
        </g>
        <g transform="matrix(0.00788336,-0.0311481,0.010321,0.0237915,453.99,-31.3165)">
            <path d="M338.552,657.314L401.337,673.659L380.029,759.585L465.967,784.722L448.708,849.099L362.173,824.772L338.552,912.131L275.767,896.225L298.849,806.971L211.137,784.722L229.357,720.346L314.779,743.624L338.552,657.314Z" style="fill:none;stroke:rgb(81,81,81);stroke-width:7.82px;"/>
        </g>
        <g transform="matrix(-0.00818839,-0.00357606,0.00118494,-0.024712,450.424,1.52612)">
            <rect x="303.75" y="659.841" width="77.424" height="287.525" style="fill:rgb(225,86,255);"/>
        </g>
        <g transform="matrix(0.00106675,-0.024761,0.00820462,0.00321938,441.613,-13.6646)">
            <rect x="303.75" y="659.841" width="77.424" height="287.525" style="fill:rgb(225,86,255);"/>
        </g>
        <g transform="matrix(-0.00118534,-0.0289562,0.00959471,-0.00357728,441.292,-6.43991)">
            <path d="M338.552,657.314L401.337,673.659L380.029,759.585L465.967,784.722L448.708,849.099L362.173,824.772L338.552,912.131L275.767,896.225L298.849,806.971L211.137,784.722L229.357,720.346L314.779,743.624L338.552,657.314Z" style="fill:none;stroke:rgb(81,81,81);stroke-width:10.51px;"/>
        </g>
    </g>
</svg>
